<?xml version="1.0" standalone="no"?>
<!DOCTYPE svg PUBLIC "-//W3C//DTD SVG 1.1//EN"
   "http://www.w3.org/Graphics/SVG/1.1/DTD/svg11.dtd">
<svg width="299" height="59" version="1.1"
   xmlns="http://www.w3.org/2000/svg">
   <desc>http://BlackLabelData.io
   </desc>

   <g id="barcode" fill="#000000">
      <rect x="0" y="0" width="299" height="59" fill="#FFFFFF" />
      <rect x="0.00" y="0.00" width="2.00" height="50.00" />
      <rect x="3.00" y="0.00" width="1.00" height="50.00" />
      <rect x="6.00" y="0.00" width="1.00" height="50.00" />
      <rect x="11.00" y="0.00" width="1.00" height="50.00" />
      <rect x="14.00" y="0.00" width="2.00" height="50.00" />
      <rect x="20.00" y="0.00" width="1.00" height="50.00" />
      <rect x="22.00" y="0.00" width="1.00" height="50.00" />
      <rect x="25.00" y="0.00" width="4.00" height="50.00" />
      <rect x="30.00" y="0.00" width="1.00" height="50.00" />
      <rect x="33.00" y="0.00" width="1.00" height="50.00" />
      <rect x="36.00" y="0.00" width="4.00" height="50.00" />
      <rect x="41.00" y="0.00" width="1.00" height="50.00" />
      <rect x="44.00" y="0.00" width="1.00" height="50.00" />
      <rect x="46.00" y="0.00" width="1.00" height="50.00" />
      <rect x="49.00" y="0.00" width="4.00" height="50.00" />
      <rect x="55.00" y="0.00" width="3.00" height="50.00" />
      <rect x="60.00" y="0.00" width="1.00" height="50.00" />
      <rect x="63.00" y="0.00" width="2.00" height="50.00" />
      <rect x="66.00" y="0.00" width="1.00" height="50.00" />
      <rect x="68.00" y="0.00" width="3.00" height="50.00" />
      <rect x="73.00" y="0.00" width="2.00" height="50.00" />
      <rect x="77.00" y="0.00" width="1.00" height="50.00" />
      <rect x="79.00" y="0.00" width="3.00" height="50.00" />
      <rect x="84.00" y="0.00" width="2.00" height="50.00" />
      <rect x="88.00" y="0.00" width="1.00" height="50.00" />
      <rect x="92.00" y="0.00" width="1.00" height="50.00" />
      <rect x="94.00" y="0.00" width="2.00" height="50.00" />
      <rect x="99.00" y="0.00" width="2.00" height="50.00" />
      <rect x="103.00" y="0.00" width="1.00" height="50.00" />
      <rect x="105.00" y="0.00" width="1.00" height="50.00" />
      <rect x="110.00" y="0.00" width="1.00" height="50.00" />
      <rect x="113.00" y="0.00" width="1.00" height="50.00" />
      <rect x="115.00" y="0.00" width="2.00" height="50.00" />
      <rect x="121.00" y="0.00" width="1.00" height="50.00" />
      <rect x="126.00" y="0.00" width="1.00" height="50.00" />
      <rect x="128.00" y="0.00" width="2.00" height="50.00" />
      <rect x="132.00" y="0.00" width="2.00" height="50.00" />
      <rect x="138.00" y="0.00" width="1.00" height="50.00" />
      <rect x="141.00" y="0.00" width="1.00" height="50.00" />
      <rect x="143.00" y="0.00" width="1.00" height="50.00" />
      <rect x="147.00" y="0.00" width="2.00" height="50.00" />
      <rect x="150.00" y="0.00" width="3.00" height="50.00" />
      <rect x="154.00" y="0.00" width="1.00" height="50.00" />
      <rect x="157.00" y="0.00" width="1.00" height="50.00" />
      <rect x="159.00" y="0.00" width="2.00" height="50.00" />
      <rect x="165.00" y="0.00" width="1.00" height="50.00" />
      <rect x="168.00" y="0.00" width="1.00" height="50.00" />
      <rect x="173.00" y="0.00" width="2.00" height="50.00" />
      <rect x="176.00" y="0.00" width="1.00" height="50.00" />
      <rect x="178.00" y="0.00" width="2.00" height="50.00" />
      <rect x="182.00" y="0.00" width="1.00" height="50.00" />
      <rect x="187.00" y="0.00" width="2.00" height="50.00" />
      <rect x="191.00" y="0.00" width="1.00" height="50.00" />
      <rect x="193.00" y="0.00" width="1.00" height="50.00" />
      <rect x="198.00" y="0.00" width="1.00" height="50.00" />
      <rect x="200.00" y="0.00" width="2.00" height="50.00" />
      <rect x="205.00" y="0.00" width="1.00" height="50.00" />
      <rect x="209.00" y="0.00" width="1.00" height="50.00" />
      <rect x="212.00" y="0.00" width="1.00" height="50.00" />
      <rect x="214.00" y="0.00" width="2.00" height="50.00" />
      <rect x="220.00" y="0.00" width="1.00" height="50.00" />
      <rect x="223.00" y="0.00" width="4.00" height="50.00" />
      <rect x="228.00" y="0.00" width="1.00" height="50.00" />
      <rect x="231.00" y="0.00" width="1.00" height="50.00" />
      <rect x="234.00" y="0.00" width="1.00" height="50.00" />
      <rect x="236.00" y="0.00" width="2.00" height="50.00" />
      <rect x="242.00" y="0.00" width="1.00" height="50.00" />
      <rect x="245.00" y="0.00" width="2.00" height="50.00" />
      <rect x="249.00" y="0.00" width="3.00" height="50.00" />
      <rect x="253.00" y="0.00" width="1.00" height="50.00" />
      <rect x="258.00" y="0.00" width="2.00" height="50.00" />
      <rect x="261.00" y="0.00" width="1.00" height="50.00" />
      <rect x="264.00" y="0.00" width="1.00" height="50.00" />
      <rect x="268.00" y="0.00" width="4.00" height="50.00" />
      <rect x="273.00" y="0.00" width="1.00" height="50.00" />
      <rect x="275.00" y="0.00" width="1.00" height="50.00" />
      <rect x="279.00" y="0.00" width="1.00" height="50.00" />
      <rect x="283.00" y="0.00" width="2.00" height="50.00" />
      <rect x="286.00" y="0.00" width="2.00" height="50.00" />
      <rect x="291.00" y="0.00" width="3.00" height="50.00" />
      <rect x="295.00" y="0.00" width="1.00" height="50.00" />
      <rect x="297.00" y="0.00" width="2.00" height="50.00" />
      <text x="149.50" y="59.00" text-anchor="middle"
         font-family="Helvetica" font-size="8.0" fill="#000000" >
         http://BlackLabelData.io
      </text>
   </g>
</svg>
